<?xml version="1.0" encoding="utf-8"?>
<!-- Generator: Adobe Illustrator 15.1.0, SVG Export Plug-In . SVG Version: 6.00 Build 0)  -->
<!DOCTYPE svg PUBLIC "-//W3C//DTD SVG 1.1//EN" "http://www.w3.org/Graphics/SVG/1.1/DTD/svg11.dtd">
<svg version="1.1" id="Layer_1" xmlns="http://www.w3.org/2000/svg" xmlns:xlink="http://www.w3.org/1999/xlink" x="0px" y="0px"
	 width="576px" height="576px" viewBox="0 0 576 576" enable-background="new 0 0 576 576" xml:space="preserve">
<text transform="matrix(1 0 0 1 396.6846 364.5869)" font-family="'Helvetica'" font-size="110">2.5</text>
<text transform="matrix(1 0 0 1 45.0366 364.4863)" font-family="'EurostileRegular'" font-size="228.5543">PM</text>
<rect x="57.926" y="210.928" fill="#FFFFFF" width="11.021" height="11.021"/>
<rect x="261.606" y="354.193" fill="#FFFFFF" width="11.021" height="11.021"/>
<rect x="448.505" y="347.942" fill="#FFFFFF" width="22.5" height="11.021"/>
<rect x="74.26" y="223.985" width="11.021" height="11.021"/>
<rect x="82.405" y="237.281" width="5.51" height="5.51"/>
<rect x="86.718" y="232.851" width="2.755" height="2.755"/>
<rect x="263.135" y="356.977" transform="matrix(-0.9992 0.0411 -0.0411 -0.9992 546.3459 708.2307)" width="5.511" height="5.511"/>
<rect x="261.82" y="364.279" transform="matrix(-0.9991 0.0415 -0.0415 -0.9991 541.3349 720.0825)" width="2.755" height="2.756"/>
<rect x="452.217" y="355.483" transform="matrix(-0.9991 0.0418 -0.0418 -0.9991 920.3162 693.0847)" width="1.377" height="1.378"/>
<rect x="417.535" y="346.594" transform="matrix(-0.9992 0.0411 -0.0411 -0.9992 850.3132 677.0462)" width="1.331" height="1.331"/>
<rect x="459.02" y="350.691" transform="matrix(-0.9991 0.0414 -0.0414 -0.9991 934.3209 684.1764)" width="2.125" height="2.125"/>
<rect x="505.144" y="372.468" transform="matrix(-0.895 -0.4461 0.4461 -0.895 792.6143 933.6558)" width="2.126" height="2.125"/>
<rect x="492.271" y="365.776" transform="matrix(-0.8318 0.5551 -0.5551 -0.8318 1107.3129 398.1003)" width="2.125" height="2.125"/>
<rect x="480.931" y="366.468" transform="matrix(-0.9991 0.0417 -0.0417 -0.9991 978.0981 713.9141)" width="1.36" height="1.361"/>
<rect x="464.705" y="353.484" transform="matrix(-0.9991 0.0413 -0.0413 -0.9991 947.2079 690.9203)" width="3.523" height="3.523"/>
<circle cx="160.949" cy="294.517" r="7.427"/>
<circle cx="404.112" cy="346.759" r="7.427"/>
<circle cx="166.926" cy="307.937" r="3.815"/>
<circle cx="170.72" cy="300.472" r="2.35"/>
<circle fill="#FFFFFF" cx="152.084" cy="285.651" r="7.427"/>
<circle fill="#FFFFFF" cx="359.114" cy="214.522" r="7.427"/>
<circle fill="#FFFFFF" cx="434.614" cy="293.069" r="7.427"/>
<circle fill="#FFFFFF" cx="511.28" cy="366.392" r="7.427"/>
<circle cx="360.585" cy="213.928" r="3.815"/>
<circle cx="364.379" cy="206.463" r="2.351"/>
<circle cx="372.051" cy="206.463" r="2.351"/>
<circle fill="#FFFFFF" cx="396.685" cy="344.4" r="2.351"/>
<circle cx="413.885" cy="349.102" r="2.351"/>
<circle cx="458.187" cy="355.295" r="0.788"/>
<circle cx="420.333" cy="349.101" r="0.788"/>
<circle cx="430.833" cy="282.259" r="0.788"/>
<circle cx="463.841" cy="351.442" r="0.788"/>
<circle cx="436.034" cy="289.08" r="3.815"/>
<circle cx="435.488" cy="284.618" r="2.351"/>
<circle fill="#FFFFFF" cx="478.469" cy="364.487" r="2.351"/>
<circle fill="#FFFFFF" cx="513.625" cy="358.965" r="2.351"/>
<circle cx="479.011" cy="364.853" r="0.788"/>
<circle cx="514.413" cy="357.866" r="0.788"/>
<circle cx="513.625" cy="355.455" r="0.788"/>
<circle cx="487.406" cy="368.597" r="1.45"/>
<circle cx="499.37" cy="370.51" r="1.914"/>
<circle cx="508.938" cy="367.964" r="2.732"/>
<rect x="533.94" y="293.028" fill="#FFFFFF" width="11.021" height="11.021"/>
<rect x="537.705" y="295.937" transform="matrix(-0.9557 -0.2944 0.2944 -0.9557 967.3641 741.0402)" width="3.522" height="3.524"/>
<rect x="536.2" y="300.53" transform="matrix(-0.9991 0.0414 -0.0414 -0.9991 1086.5394 580.7047)" width="2.125" height="2.125"/>
<rect x="539.759" y="302.725" transform="matrix(-0.9196 0.3928 -0.3928 -0.9196 1156.637 370.1488)" width="1.377" height="1.378"/>
</svg>
